<?xml version="1.0" encoding="utf-8"?>
<!-- Generator: Adobe Illustrator 27.9.0, SVG Export Plug-In . SVG Version: 6.00 Build 0)  -->
<svg version="1.1" id="Layer_1" xmlns="http://www.w3.org/2000/svg" xmlns:xlink="http://www.w3.org/1999/xlink" x="0px" y="0px"
	 viewBox="0 0 600 374" style="enable-background:new 0 0 600 374;" xml:space="preserve">
<style type="text/css">
	.st0{fill:#48FF9B;}
	.st1{fill:#FFFFFF;}
</style>
<g>
	<path class="st0" d="M93.9,254.6c13.1,0,28.2-2.4,38.1-4.8V205c-10.7-1.6-26.2-3.2-38.5-3.2c-29.7,0-41.6,9.9-41.6,26.2
		C51.9,246.7,69.7,254.6,93.9,254.6 M95.5,79.7c49.2,0,82.5,24.6,82.5,80.5V276c0,3.2-1.6,5.6-4.4,6.7
		c-20.6,6.3-50.4,11.9-79.7,11.9c-46,0-88.4-16.7-88.4-66.2c0-43.2,36.1-63.4,86.8-63.4c13.1,0,27.8,1.6,39.7,3.2v-7.5
		c0-28.2-10.3-40-39.7-40c-19.8,0-38.1,5.2-50.8,12.7c-2.8,2-5.9,1.6-7.9-1.6l-15.9-24.2c-2-3.2-2-5.2,0-6.7
		C36.8,87.7,63.4,79.7,95.5,79.7"/>
	<path class="st0" d="M242.1,56.7c-14.7,0-26.2-11.5-26.2-26.2c0-15.1,11.5-25.8,26.2-25.8c15.1,0,25.8,10.7,25.8,25.8
		C267.9,45.2,257.2,56.7,242.1,56.7"/>
	<path class="st0" d="M224.7,289.9c-3.6,0-5.9-2-5.9-5.9V90.1c0-3.6,2.4-5.6,5.9-5.6h34.5c3.6,0,5.6,2,5.6,5.6V284
		c0,4-2,5.9-5.6,5.9H224.7z"/>
	<path class="st1" d="M372.8,294.7c-42.8,0-66.2-28.6-66.2-76.9V12.3c0-4,2-5.9,5.9-5.9h34.1c4,0,5.9,2,5.9,5.9v203.8
		c0,26.2,8.3,36.5,26.2,36.5c4.8,0,9.9-0.4,15.1-0.8c4,0,5.9,2,5.9,5.9v29.3c0,3.2-1.2,5.9-4.4,6.3
		C388.7,294.3,380.8,294.7,372.8,294.7"/>
	<path class="st1" d="M548.5,90c0-3.6,2-5.6,5.9-5.6h34.1c4,0,5.9,2,5.9,5.6v186.8c0,61.1-27.8,92.4-88.4,92.4
		c-33.7,0-57.1-7.9-77.7-25c-3.2-2.4-3.2-4.8-1.2-7.9l17-24.2c2-3.2,4.8-4,7.5-2c15.1,10.3,32.5,18.2,53.9,18.2
		c27.4,0,44.8-11.9,43.2-51.6c-12.7,4-27.8,7.1-42.4,7.1c-41.2,0-84.9-26.2-84.9-80.9V90c0-3.6,2.4-5.6,5.9-5.6h34.5
		c3.6,0,5.6,2,5.6,5.6v111c0,30.5,21.4,41.2,45.2,41.2c13.5,0.4,27-3.2,35.7-7.9V90z"/>
</g>
</svg>
