<svg id="Calque_1" data-name="Calque 1" xmlns="http://www.w3.org/2000/svg" viewBox="0 0 558.84 153.36"><defs><style>.cls-1{fill:#fdfdfc;}</style></defs><polygon class="cls-1" points="50.77 0 50.77 30.65 122.39 30.65 122.29 102.17 153.05 102.17 153.05 0 50.77 0"/><polygon class="cls-1" points="30.76 0 30.76 122.61 153.05 122.61 122.29 153.37 0 153.37 0 30.65 30.76 0"/><path class="cls-1" d="M301.67,111.18v-2.46L331,73,301.67,38.66V36.2H318l22.11,26,22.24-26h16.15v2.46L349.24,73l29.34,35.68v2.46H362.3L340.06,83.9,318,111.18Z"/><polygon class="cls-1" points="454.66 36.65 454.66 97.38 406.3 97.38 406.3 36.65 392.38 36.65 392.38 97.4 406.28 111.3 406.3 111.3 406.3 111.3 454.66 111.3 454.66 125.98 405.63 125.98 405.63 139.89 454.67 139.89 468.57 125.99 468.57 36.65 454.66 36.65"/><path class="cls-1" d="M287.9,64.82V32.08h0v0L274,18.17H208.75l-13.91,13.9v79.19h13.92V78.73H274v32.58H287.9V78.73h0V64.82Zm-13.92,0H208.76V32.08H274Z"/><path class="cls-1" d="M544.93,36.64H482.62V50.56h62.31V67H482.62V80.9h.05V97.36l13.94,13.94h62.23V36.64Zm0,60.74H496.59V80.9h48.34Z"/></svg>